<?xml version="1.0"?>
<svg xmlns="http://www.w3.org/2000/svg" xmlns:xlink="http://www.w3.org/1999/xlink" version="1.1" id="Capa_1" x="0px" y="0px" viewBox="0 0 414.64 414.64" style="enable-background:new 0 0 414.64 414.64;" xml:space="preserve" width="512px" height="512px" class=""><g><g>
	<g>
		<path d="M365.08,87.76H49.52C22.207,87.848,0.088,109.967,0,137.28v140c0.044,27.344,22.176,49.512,49.52,49.6h315.56    c27.344-0.066,49.494-22.216,49.56-49.56v-140C414.574,109.976,392.424,87.826,365.08,87.76z M49.56,100h315.56    c19.27,0.059,35.348,14.735,37.16,33.92L207.32,248.76L12.4,133.92C14.212,114.735,30.29,100.059,49.56,100z M402.4,277.36    c-0.066,20.562-16.718,37.214-37.28,37.28H49.52c-20.553-0.088-37.192-16.727-37.28-37.28V148l192,113.12    c1.934,1.156,4.346,1.156,6.28,0l192-113.08L402.4,277.36z" data-original="#000000" class="" data-old_color="#000000" fill="#EBC65E"/>
	</g>
</g></g> </svg>
